<svg width="60" height="64" viewBox="0 0 60 64" fill="none" xmlns="http://www.w3.org/2000/svg">
<path d="M30.0421 7.5116C28.0619 7.5116 26.4509 9.13248 26.4509 11.1272C26.4509 13.122 28.0619 14.7406 30.0421 14.7406C32.0224 14.7406 33.6333 13.1197 33.6333 11.1272C33.6333 9.13471 32.0224 7.5116 30.0421 7.5116ZM30.0421 15.0742C27.8772 15.0742 26.1172 13.3033 26.1172 11.125C26.1172 8.94666 27.8772 7.17578 30.0421 7.17578C32.2071 7.17578 33.9671 8.94666 33.9671 11.125C33.9671 13.3033 32.2071 15.0742 30.0421 15.0742Z" fill="black"/>
<path d="M20.5673 11.0836C20.0333 11.0836 19.5972 11.5224 19.5972 12.0597C19.5972 12.597 20.0333 13.0358 20.5673 13.0358C21.1013 13.0358 21.5374 12.5992 21.5374 12.0597C21.5374 11.5201 21.1035 11.0836 20.5673 11.0836ZM20.5673 13.3694C19.8486 13.3694 19.2656 12.7806 19.2656 12.0597C19.2656 11.3388 19.8508 10.75 20.5673 10.75C21.2837 10.75 21.8689 11.3366 21.8689 12.0597C21.8689 12.7828 21.2859 13.3694 20.5673 13.3694Z" fill="black"/>
<path d="M15.161 13.3062C14.627 13.3062 14.1909 13.7428 14.1909 14.2823C14.1909 14.8219 14.627 15.2585 15.161 15.2585C15.695 15.2585 16.1311 14.8197 16.1311 14.2823C16.1311 13.745 15.6972 13.3062 15.161 13.3062ZM15.161 15.592C14.4423 15.592 13.8594 15.0055 13.8594 14.2823C13.8594 13.5592 14.4446 12.9727 15.161 12.9727C15.8775 12.9727 16.4627 13.5615 16.4627 14.2823C16.4627 15.0032 15.8797 15.592 15.161 15.592Z" fill="black"/>
<path d="M9.75476 15.5562C9.22076 15.5562 8.78465 15.995 8.78465 16.5323C8.78465 17.0696 9.21853 17.5085 9.75476 17.5085C10.291 17.5085 10.7249 17.0719 10.7249 16.5323C10.7249 15.9928 10.2888 15.5562 9.75476 15.5562ZM9.75476 17.842C9.03608 17.842 8.45312 17.2532 8.45312 16.5323C8.45312 15.8115 9.03608 15.2227 9.75476 15.2227C10.4734 15.2227 11.0564 15.8092 11.0564 16.5323C11.0564 17.2555 10.4712 17.842 9.75476 17.842Z" fill="black"/>
<path d="M16.6719 31.5391L17.909 34.1987H25.4985L26.947 31.5435L16.6719 31.5391ZM17.1948 31.8749L26.3841 31.8794L25.3005 33.8652H18.1204L17.1948 31.8749Z" fill="black"/>
<path d="M22.0174 14.8616C23.2812 20.9175 22.1932 21.2869 21.7593 21.4459C21.5924 21.4974 21.43 21.5242 21.2653 21.5242C20.1261 21.5242 18.978 20.2302 16.5527 17.1161C16.8976 18.428 17.3248 20.7004 17.3893 21.869C17.4672 23.6936 16.1366 23.7339 15.9075 23.7451C15.8874 23.7451 15.8674 23.7451 15.8474 23.7451C14.0985 23.7451 11.0547 19.3884 11.0547 19.3884L16.2768 30.6629H27.4487L29.8984 26.2033L22.0174 14.8594V14.8616ZM22.6359 16.337L29.5068 26.2279L27.2506 30.3316H16.486L12.5232 21.7772C13.5556 22.9235 14.8439 24.0809 15.8452 24.0809C15.8719 24.0809 15.8986 24.0809 15.9364 24.0787C17.1268 24.016 17.7765 23.2033 17.7209 21.8488C17.6764 21.0295 17.4561 19.6817 17.2113 18.4907C19.0714 20.819 20.1328 21.8578 21.2653 21.8578C21.4611 21.8578 21.6547 21.8265 21.855 21.766L21.8683 21.7615H21.875C22.4023 21.5668 23.4525 21.1839 22.6337 16.337" fill="black"/>
<path d="M39.4344 11.0797C38.9004 11.0797 38.4643 11.5162 38.4643 12.0558C38.4643 12.5953 38.9004 13.0319 39.4344 13.0319C39.9685 13.0319 40.4046 12.5953 40.4046 12.0558C40.4046 11.5162 39.9685 11.0797 39.4344 11.0797ZM39.4344 13.3655C38.7158 13.3655 38.1328 12.7767 38.1328 12.0558C38.1328 11.3349 38.718 10.7461 39.4344 10.7461C40.1509 10.7461 40.7361 11.3327 40.7361 12.0558C40.7361 12.7789 40.1509 13.3655 39.4344 13.3655Z" fill="black"/>
<path d="M44.8485 13.3062C44.3145 13.3062 43.8784 13.7428 43.8784 14.2823C43.8784 14.8219 44.3123 15.2585 44.8485 15.2585C45.3847 15.2585 45.8186 14.8219 45.8186 14.2823C45.8186 13.7428 45.3825 13.3062 44.8485 13.3062ZM44.8485 15.592C44.1298 15.592 43.5469 15.0055 43.5469 14.2823C43.5469 13.5592 44.1298 12.9727 44.8485 12.9727C45.5672 12.9727 46.1502 13.5615 46.1502 14.2823C46.1502 15.0032 45.565 15.592 44.8485 15.592Z" fill="black"/>
<path d="M50.2391 15.5523C49.7051 15.5523 49.269 15.9889 49.269 16.5284C49.269 17.068 49.7051 17.5045 50.2391 17.5045C50.7731 17.5045 51.2092 17.0657 51.2092 16.5284C51.2092 15.9911 50.7754 15.5523 50.2391 15.5523ZM50.2391 17.8381C49.5205 17.8381 48.9375 17.2493 48.9375 16.5284C48.9375 15.8075 49.5227 15.2188 50.2391 15.2188C50.9556 15.2188 51.5408 15.8053 51.5408 16.5284C51.5408 17.2516 50.9578 17.8381 50.2391 17.8381Z" fill="black"/>
<path d="M43.3298 31.5391L33.0547 31.5435L34.5032 34.1987H42.0905L43.3276 31.5391H43.3298ZM42.807 31.8726L41.8814 33.8629H34.7012L33.6176 31.8771L42.807 31.8726Z" fill="black"/>
<path d="M37.9826 14.8594L30.1016 26.2033L32.5513 30.6629H43.7232L48.9453 19.3884C48.9453 19.3884 45.8992 23.7451 44.1526 23.7451C44.1326 23.7451 44.1125 23.7451 44.0925 23.7451C43.8633 23.7317 42.5328 23.6936 42.6106 21.869C42.6752 20.6981 43.1024 18.4258 43.4473 17.1161C41.022 20.2302 39.8739 21.5242 38.7347 21.5242C38.5722 21.5242 38.4076 21.4974 38.2407 21.4459C37.8046 21.2869 36.7166 20.9175 37.9826 14.8616M37.364 16.3347C36.5475 21.1817 37.5954 21.5645 38.1294 21.7593H38.1361L38.145 21.7638C38.3475 21.8265 38.5411 21.8556 38.7347 21.8556C39.8672 21.8556 40.9285 20.819 42.7886 18.4884C42.5417 19.6817 42.3236 21.0295 42.2791 21.8511C42.2213 23.2011 42.8732 24.0115 44.0747 24.0764C44.1014 24.0764 44.1281 24.0787 44.1548 24.0787C45.1538 24.0787 46.4444 22.9212 47.4768 21.775L43.514 30.3293H32.7493L30.4932 26.2257L37.364 16.3347Z" fill="black"/>
<path d="M30.0032 27.8242L26.4766 34.207L30.0032 32.7204L33.5299 34.207L30.0032 27.8242ZM30.0032 28.5138L32.7734 33.5242L30.1323 32.4115L30.0032 32.3577L29.8742 32.4115L27.2353 33.5242L30.0032 28.5138Z" fill="black"/>
<path d="M36.1937 15.9297L30.0326 18.5401L23.8203 15.9297L30.0215 24.7997L36.1937 15.9297ZM24.7548 16.6842L29.9035 18.8468L30.0326 18.9005L30.1616 18.8468L35.2592 16.6886L30.0215 24.2177L24.7548 16.6842Z" fill="black"/>
<path d="M41.8323 44.3224L46.7473 38.918H44.6759L39.1133 45.0612V38.918H39.0577H37.5469V50.7499H37.6047H39.1133V47.3224L40.7932 45.4664L44.994 50.7499H46.9587L41.8323 44.3224Z" fill="black"/>
<path d="M29.9976 47.2418L27.8104 46.1492L29.9687 41.3672L32.1648 46.1582L29.9954 47.2418H29.9976ZM29.4058 38.918L24.0234 50.7499H25.7367L27.1741 47.5641L29.9999 48.9768L32.8145 47.5686L34.2741 50.7499H35.9763L30.525 38.918H29.408H29.4058Z" fill="black"/>
<path d="M14.5777 40.456H16.6091H17.4969C18.9143 40.456 20.6031 40.8926 20.6031 42.9746C20.6031 45.0567 18.9143 45.5694 17.4969 45.5694H16.202H14.5777V40.4538V40.456ZM19.7954 46.7044C21.295 46.0731 22.1339 44.7567 22.1339 42.9769C22.1339 40.4359 20.4006 38.918 17.4969 38.918H16.202H13.0469V50.7499H14.5755V47.1119H17.2388H17.4969C17.6972 47.1119 17.5503 47.1029 17.9108 47.0895L20.5652 50.7499H22.4632L19.5818 46.7806C19.713 46.7358 19.7931 46.7067 19.7931 46.7067" fill="black"/>
<path d="M14.1805 53.8477C14.9326 53.8477 15.3664 54.2238 15.3664 54.8753C15.3664 55.5267 14.9326 55.9432 14.1805 55.9432H13.3862V56.9103H13.0391V53.8499H14.1805V53.8477ZM13.3862 55.6051H14.1671C14.7145 55.6051 15.0305 55.3611 15.0305 54.8842C15.0305 54.4073 14.7145 54.1857 14.1671 54.1857H13.3862V55.6073V55.6051Z" fill="black"/>
<path d="M20.0099 55.3762C20.0099 56.2381 19.3068 56.9232 18.4212 56.9232C17.5357 56.9232 16.8281 56.2359 16.8281 55.3762C16.8281 54.5165 17.5312 53.8359 18.4212 53.8359C19.3113 53.8359 20.0099 54.5143 20.0099 55.3762ZM17.1775 55.3762C17.1775 56.0501 17.7426 56.5874 18.419 56.5874C19.0954 56.5874 19.6517 56.0501 19.6517 55.3762C19.6517 54.7023 19.0954 54.1695 18.419 54.1695C17.7426 54.1695 17.1775 54.7023 17.1775 55.3762Z" fill="black"/>
<path d="M23.172 55.932C23.1075 55.9364 23.0385 55.9409 22.9673 55.9409H22.1596V56.9081H21.8125V53.8477H22.9673C23.7282 53.8477 24.1666 54.2238 24.1666 54.8753C24.1666 55.3835 23.924 55.7238 23.4857 55.867L24.1977 56.9081H23.8017L23.172 55.932ZM22.9673 55.6051C23.5191 55.6051 23.8306 55.3611 23.8306 54.8842C23.8306 54.4073 23.5169 54.1857 22.9673 54.1857H22.1596V55.6073H22.9673V55.6051Z" fill="black"/>
<path d="M28.5148 54.2837L28.3057 54.5501C28.072 54.3106 27.7405 54.165 27.4068 54.165C26.7214 54.165 26.1696 54.6979 26.1696 55.3717C26.1696 56.0456 26.7214 56.5784 27.4068 56.5784C27.7405 56.5784 28.0676 56.4396 28.3057 56.2113L28.5193 56.4508C28.2189 56.7352 27.8117 56.9232 27.3912 56.9232C26.5145 56.9232 25.8203 56.2359 25.8203 55.3717C25.8203 54.5076 26.5234 53.8359 27.4045 53.8359C27.8206 53.8359 28.2256 54.0061 28.517 54.2815L28.5148 54.2837Z" fill="black"/>
<path d="M30.6596 54.1857V55.1909H32.1926V55.5267H30.6596V56.5767H32.4307V56.9081H30.3125V53.8477H32.3751V54.1835H30.6596V54.1857Z" fill="black"/>
<path d="M35.9846 56.5767V56.9081H34.3047V53.8477H34.6518V56.5767H35.9846Z" fill="black"/>
<path d="M38.0122 56.1334L37.674 56.9081H37.3047L38.6686 53.8477H39.0291L40.3886 56.9081H40.0103L39.6721 56.1334H38.0122ZM38.8377 54.2439L38.1613 55.7954H39.5253L38.84 54.2439H38.8377Z" fill="black"/>
<path d="M42.0312 56.9081V53.8477H42.3784V56.9081H42.0312Z" fill="black"/>
<path d="M46.6326 56.9081L44.808 54.4499V56.9081H44.4609V53.8477H44.8214L46.6459 56.3103V53.8477H46.9886V56.9081H46.6326Z" fill="black"/>
</svg>
